<svg width="25" height="26" viewBox="0 0 25 26" fill="none" xmlns="http://www.w3.org/2000/svg">
<g clip-path="url(#clip0_7101_6821)">
<path d="M18.4785 2.88379C17.3487 2.90136 16.2436 3.21674 15.2747 3.79807C14.3059 4.3794 13.5075 5.2061 12.9604 6.19468C12.4132 5.2061 11.6149 4.3794 10.646 3.79807C9.67711 3.21674 8.57198 2.90136 7.44222 2.88379C5.64123 2.96204 3.94442 3.74989 2.72247 5.07523C1.50053 6.40057 0.852792 8.15565 0.920766 9.95705C0.920766 14.5191 5.72256 19.5014 9.74981 22.8796C10.649 23.6352 11.7859 24.0494 12.9604 24.0494C14.1349 24.0494 15.2717 23.6352 16.1709 22.8796C20.1982 19.5014 25 14.5191 25 9.95705C25.0679 8.15565 24.4202 6.40057 23.1983 5.07523C21.9763 3.74989 20.2795 2.96204 18.4785 2.88379Z" fill="black"/>
</g>
<defs>
<clipPath id="clip0_7101_6821">
<rect width="24.0792" height="24.0792" fill="white" transform="translate(0.920792 0.960205)"/>
</clipPath>
</defs>
</svg>
