<svg width="25" height="26" viewBox="0 0 25 26" fill="none" xmlns="http://www.w3.org/2000/svg">
<g clip-path="url(#clip0_7101_6823)">
<path d="M18.4389 2.88379C17.3092 2.90136 16.204 3.21674 15.2351 3.79807C14.2663 4.3794 13.4679 5.2061 12.9208 6.19468C12.3736 5.2061 11.5753 4.3794 10.6064 3.79807C9.63751 3.21674 8.53238 2.90136 7.40262 2.88379C5.60164 2.96204 3.90482 3.74989 2.68288 5.07523C1.46094 6.40057 0.813195 8.15565 0.881169 9.95705C0.881169 14.5191 5.68296 19.5014 9.71021 22.8796C10.6094 23.6352 11.7463 24.0494 12.9208 24.0494C14.0953 24.0494 15.2322 23.6352 16.1313 22.8796C20.1586 19.5014 24.9604 14.5191 24.9604 9.95705C25.0283 8.15565 24.3806 6.40057 23.1587 5.07523C21.9367 3.74989 20.2399 2.96204 18.4389 2.88379ZM14.8421 21.3445C14.3043 21.7974 13.6238 22.0457 12.9208 22.0457C12.2177 22.0457 11.5372 21.7974 10.9994 21.3445C5.84449 17.0193 2.88777 12.8696 2.88777 9.95705C2.81918 8.6876 3.25534 7.44251 4.10112 6.49336C4.9469 5.54421 6.13368 4.96799 7.40262 4.89039C8.67156 4.96799 9.85834 5.54421 10.7041 6.49336C11.5499 7.44251 11.9861 8.6876 11.9175 9.95705C11.9175 10.2231 12.0232 10.4783 12.2113 10.6665C12.3995 10.8547 12.6547 10.9604 12.9208 10.9604C13.1869 10.9604 13.4421 10.8547 13.6302 10.6665C13.8184 10.4783 13.9241 10.2231 13.9241 9.95705C13.8555 8.6876 14.2916 7.44251 15.1374 6.49336C15.9832 5.54421 17.17 4.96799 18.4389 4.89039C19.7079 4.96799 20.8946 5.54421 21.7404 6.49336C22.5862 7.44251 23.0224 8.6876 22.9538 9.95705C22.9538 12.8696 19.997 17.0193 14.8421 21.3405V21.3445Z" fill="black"/>
</g>
<defs>
<clipPath id="clip0_7101_6823">
<rect width="24.0792" height="24.0792" fill="white" transform="translate(0.881165 0.960205)"/>
</clipPath>
</defs>
</svg>
