<svg width="26" height="26" viewBox="0 0 26 26" fill="none" xmlns="http://www.w3.org/2000/svg">
<g clip-path="url(#clip0_7101_6819)">
<path d="M24.1577 10.0592L16.5477 2.44814C15.6058 1.50904 14.33 0.981689 13 0.981689C11.67 0.981689 10.3942 1.50904 9.45233 2.44814L1.8423 10.0592C1.5618 10.3379 1.33942 10.6695 1.18803 11.0348C1.03665 11.4001 0.959274 11.7918 0.9604 12.1872V22.0366C0.9604 22.8348 1.27751 23.6004 1.84198 24.1649C2.40645 24.7294 3.17203 25.0465 3.9703 25.0465H22.0297C22.828 25.0465 23.5936 24.7294 24.158 24.1649C24.7225 23.6004 25.0396 22.8348 25.0396 22.0366V12.1872C25.0407 11.7918 24.9634 11.4001 24.812 11.0348C24.6606 10.6695 24.4382 10.3379 24.1577 10.0592ZM16.0099 23.0399H9.9901V19.0929C9.9901 18.2946 10.3072 17.529 10.8717 16.9646C11.4361 16.4001 12.2017 16.083 13 16.083C13.7983 16.083 14.5639 16.4001 15.1283 16.9646C15.6928 17.529 16.0099 18.2946 16.0099 19.0929V23.0399ZM23.033 22.0366C23.033 22.3027 22.9273 22.5579 22.7391 22.746C22.551 22.9342 22.2958 23.0399 22.0297 23.0399H18.0165V19.0929C18.0165 17.7624 17.488 16.4865 16.5472 15.5457C15.6064 14.6049 14.3305 14.0764 13 14.0764C11.6695 14.0764 10.3936 14.6049 9.4528 15.5457C8.51202 16.4865 7.9835 17.7624 7.9835 19.0929V23.0399H3.9703C3.70421 23.0399 3.44902 22.9342 3.26086 22.746C3.07271 22.5579 2.967 22.3027 2.967 22.0366V12.1872C2.96793 11.9213 3.07354 11.6664 3.26097 11.4778L10.871 3.86981C11.4366 3.30689 12.202 2.99087 13 2.99087C13.798 2.99087 14.5634 3.30689 15.129 3.86981L22.739 11.4808C22.9257 11.6687 23.0313 11.9223 23.033 12.1872V22.0366Z" fill="black"/>
</g>
<defs>
<clipPath id="clip0_7101_6819">
<rect width="24.0792" height="24.0792" fill="white" transform="translate(0.960388 0.960205)"/>
</clipPath>
</defs>
</svg>
