<svg width="25" height="26" viewBox="0 0 25 26" fill="none" xmlns="http://www.w3.org/2000/svg">
<g clip-path="url(#clip0_7101_6813)">
<path d="M12.0396 16.0024C10.3773 16.0024 9.02971 17.35 9.02971 19.0123V25.0321H15.0495V19.0123C15.0495 17.35 13.7019 16.0024 12.0396 16.0024Z" fill="black"/>
<path d="M17.0561 19.0122V25.032H21.0693C22.7316 25.032 24.0792 23.6844 24.0792 22.0221V12.871C24.0794 12.3498 23.8769 11.8489 23.5143 11.4744L14.9883 2.25705C13.4839 0.629357 10.9449 0.529419 9.31719 2.0338C9.23988 2.10529 9.16538 2.17974 9.09394 2.25705L0.582933 11.4714C0.209423 11.8474 -0.000141018 12.356 7.11949e-08 12.886V22.0221C7.11949e-08 23.6844 1.34759 25.032 3.0099 25.032H7.02308V19.0122C7.04185 16.2764 9.25069 14.0423 11.9176 13.9779C14.6737 13.9114 17.0351 16.1836 17.0561 19.0122Z" fill="black"/>
<path d="M12.0396 16.0024C10.3773 16.0024 9.02971 17.35 9.02971 19.0123V25.0321H15.0495V19.0123C15.0495 17.35 13.7019 16.0024 12.0396 16.0024Z" fill="black"/>
</g>
<defs>
<clipPath id="clip0_7101_6813">
<rect width="24.0792" height="24.0792" fill="white" transform="translate(0 0.960205)"/>
</clipPath>
</defs>
</svg>
