<svg width="26" height="25" viewBox="0 0 26 25" fill="none" xmlns="http://www.w3.org/2000/svg">
<g clip-path="url(#clip0_7101_6828)">
<path d="M24.7456 23.2876L18.7569 17.2989C20.3889 15.3029 21.1913 12.756 20.9981 10.1851C20.805 7.61408 19.631 5.21569 17.7191 3.48599C15.8072 1.75629 13.3036 0.827615 10.7261 0.892059C8.14872 0.956503 5.69466 2.00913 3.87157 3.83222C2.04848 5.65531 0.995855 8.10937 0.931411 10.6868C0.866968 13.2642 1.79564 15.7678 3.52534 17.6797C5.25504 19.5917 7.65343 20.7656 10.2244 20.9588C12.7954 21.152 15.3423 20.3496 17.3383 18.7176L23.327 24.7063C23.5162 24.889 23.7696 24.9902 24.0327 24.9879C24.2957 24.9856 24.5474 24.8801 24.7334 24.694C24.9194 24.508 25.0249 24.2564 25.0272 23.9933C25.0295 23.7303 24.9284 23.4768 24.7456 23.2876ZM10.9934 18.9804C9.40591 18.9804 7.85409 18.5097 6.53415 17.6277C5.21422 16.7458 4.18545 15.4922 3.57796 14.0256C2.97046 12.559 2.81151 10.9451 3.12121 9.38816C3.43091 7.83119 4.19535 6.40102 5.31786 5.27851C6.44037 4.156 7.87054 3.39156 9.42751 3.08185C10.9845 2.77215 12.5983 2.9311 14.065 3.5386C15.5316 4.1461 16.7851 5.17487 17.6671 6.4948C18.549 7.81474 19.0198 9.36656 19.0198 10.954C19.0174 13.082 18.171 15.1222 16.6663 16.6269C15.1615 18.1316 13.1214 18.978 10.9934 18.9804Z" fill="black"/>
</g>
<defs>
<clipPath id="clip0_7101_6828">
<rect width="24.0792" height="24.0792" fill="white" transform="translate(0.960388 0.920654)"/>
</clipPath>
</defs>
</svg>
