<svg width="25" height="25" viewBox="0 0 25 25" fill="none" xmlns="http://www.w3.org/2000/svg">
<g clip-path="url(#clip0_7101_6809)">
<path d="M23.6691 4.09045C23.3869 3.75178 23.0336 3.47939 22.6343 3.29265C22.2349 3.1059 21.7994 3.00936 21.3585 3.0099H5.13716L5.09502 2.65774C5.00879 1.92575 4.65697 1.25085 4.10626 0.760981C3.55556 0.271115 2.84425 0.000342921 2.1072 0L1.88446 0C1.61837 0 1.36318 0.105705 1.17502 0.29386C0.986869 0.482015 0.881165 0.737208 0.881165 1.0033C0.881165 1.26939 0.986869 1.52459 1.17502 1.71274C1.36318 1.9009 1.61837 2.0066 1.88446 2.0066H2.1072C2.35294 2.00663 2.59012 2.09685 2.77376 2.26015C2.9574 2.42345 3.07472 2.64846 3.10347 2.89251L4.48401 14.6311C4.62734 15.8519 5.21389 16.9776 6.13234 17.7945C7.0508 18.6115 8.23721 19.0627 9.4664 19.0627H19.9439C20.21 19.0627 20.4651 18.957 20.6533 18.7688C20.8415 18.5807 20.9472 18.3255 20.9472 18.0594C20.9472 17.7933 20.8415 17.5381 20.6533 17.35C20.4651 17.1618 20.21 17.0561 19.9439 17.0561H9.4664C8.84542 17.0544 8.24017 16.8606 7.73364 16.5013C7.22711 16.1421 6.84409 15.635 6.6371 15.0495H18.5964C19.7726 15.0496 20.9114 14.6364 21.8138 13.8821C22.7163 13.1278 23.325 12.0804 23.5337 10.9229L24.3213 6.55456C24.3999 6.12114 24.3822 5.67574 24.2695 5.24991C24.1568 4.82408 23.9518 4.42824 23.6691 4.09045ZM22.3518 6.19839L21.5632 10.5668C21.4379 11.262 21.072 11.8911 20.5297 12.3438C19.9873 12.7965 19.3029 13.044 18.5964 13.0429H6.31805L5.37394 5.0165H21.3585C21.5059 5.01562 21.6517 5.04722 21.7855 5.10906C21.9192 5.1709 22.0378 5.26145 22.1326 5.37428C22.2274 5.48712 22.2962 5.61945 22.3341 5.76189C22.372 5.90432 22.378 6.05336 22.3518 6.19839Z" fill="black"/>
<path d="M7.90424 24.0791C9.01246 24.0791 9.91084 23.1807 9.91084 22.0725C9.91084 20.9643 9.01246 20.0659 7.90424 20.0659C6.79603 20.0659 5.89764 20.9643 5.89764 22.0725C5.89764 23.1807 6.79603 24.0791 7.90424 24.0791Z" fill="black"/>
<path d="M17.9373 24.0791C19.0455 24.0791 19.9439 23.1807 19.9439 22.0725C19.9439 20.9643 19.0455 20.0659 17.9373 20.0659C16.829 20.0659 15.9307 20.9643 15.9307 22.0725C15.9307 23.1807 16.829 24.0791 17.9373 24.0791Z" fill="black"/>
</g>
<defs>
<clipPath id="clip0_7101_6809">
<rect width="24.0792" height="24.0792" fill="white" transform="translate(0.881165)"/>
</clipPath>
</defs>
</svg>
