<svg width="25" height="25" viewBox="0 0 25 25" fill="none" xmlns="http://www.w3.org/2000/svg">
<g clip-path="url(#clip0_7101_6805)">
<path d="M23.7087 4.09045C23.4265 3.75178 23.0732 3.47939 22.6739 3.29265C22.2745 3.1059 21.839 3.00936 21.3981 3.0099H5.17679L5.13465 2.65774C5.04842 1.92575 4.6966 1.25085 4.14589 0.760981C3.59518 0.271115 2.88388 0.000342921 2.14682 0L1.92409 0C1.658 0 1.40281 0.105705 1.21465 0.29386C1.0265 0.482015 0.920792 0.737208 0.920792 1.0033C0.920792 1.26939 1.0265 1.52459 1.21465 1.71274C1.40281 1.9009 1.658 2.0066 1.92409 2.0066H2.14682C2.39257 2.00663 2.62975 2.09685 2.81339 2.26015C2.99703 2.42345 3.11435 2.64846 3.1431 2.89251L4.52364 14.6311C4.66697 15.8519 5.25352 16.9776 6.17197 17.7945C7.09042 18.6115 8.27684 19.0627 9.50603 19.0627H19.9835C20.2496 19.0627 20.5048 18.957 20.6929 18.7688C20.8811 18.5807 20.9868 18.3255 20.9868 18.0594C20.9868 17.7933 20.8811 17.5381 20.6929 17.35C20.5048 17.1618 20.2496 17.0561 19.9835 17.0561H9.50603C8.88504 17.0544 8.2798 16.8606 7.77327 16.5013C7.26673 16.1421 6.88372 15.635 6.67672 15.0495H18.6361C19.8122 15.0496 20.951 14.6364 21.8535 13.8821C22.7559 13.1278 23.3646 12.0804 23.5733 10.9229L24.3609 6.55456C24.4395 6.12114 24.4218 5.67574 24.3091 5.24991C24.1964 4.82408 23.9915 4.42824 23.7087 4.09045Z" fill="black"/>
<path d="M7.94387 24.0791C9.05209 24.0791 9.95047 23.1807 9.95047 22.0725C9.95047 20.9643 9.05209 20.0659 7.94387 20.0659C6.83566 20.0659 5.93727 20.9643 5.93727 22.0725C5.93727 23.1807 6.83566 24.0791 7.94387 24.0791Z" fill="black"/>
<path d="M17.9769 24.0791C19.0851 24.0791 19.9835 23.1807 19.9835 22.0725C19.9835 20.9643 19.0851 20.0659 17.9769 20.0659C16.8686 20.0659 15.9703 20.9643 15.9703 22.0725C15.9703 23.1807 16.8686 24.0791 17.9769 24.0791Z" fill="black"/>
</g>
<defs>
<clipPath id="clip0_7101_6805">
<rect width="24.0792" height="24.0792" fill="white" transform="translate(0.920792)"/>
</clipPath>
</defs>
</svg>
