<svg width="26" height="25" viewBox="0 0 26 25" fill="none" xmlns="http://www.w3.org/2000/svg">
<g clip-path="url(#clip0_7101_6802)">
<path d="M13 12.0396C14.1906 12.0396 15.3545 11.6865 16.3444 11.0251C17.3344 10.3636 18.1059 9.42345 18.5616 8.32348C19.0172 7.22351 19.1364 6.01312 18.9041 4.8454C18.6718 3.67767 18.0985 2.60505 17.2566 1.76316C16.4148 0.921277 15.3421 0.347947 14.1744 0.115671C13.0067 -0.116604 11.7963 0.0026083 10.6963 0.458233C9.59634 0.913857 8.65618 1.68543 7.99471 2.67538C7.33325 3.66533 6.98019 4.8292 6.98019 6.0198C6.98179 7.61586 7.61653 9.1461 8.74511 10.2747C9.8737 11.4033 11.4039 12.038 13 12.0396ZM13 2.0066C13.7937 2.0066 14.5696 2.24197 15.2296 2.68295C15.8896 3.12392 16.404 3.7507 16.7077 4.48402C17.0115 5.21733 17.0909 6.02425 16.9361 6.80274C16.7812 7.58122 16.399 8.29631 15.8378 8.85756C15.2765 9.41882 14.5614 9.80104 13.7829 9.95589C13.0044 10.1107 12.1975 10.0313 11.4642 9.72752C10.7309 9.42377 10.1041 8.90938 9.66314 8.24942C9.22216 7.58945 8.98679 6.81354 8.98679 6.0198C8.98679 4.95544 9.40961 3.93466 10.1622 3.18204C10.9149 2.42942 11.9356 2.0066 13 2.0066Z" fill="black"/>
<path d="M13 14.0464C10.606 14.049 8.31078 15.0012 6.61796 16.6941C4.92514 18.3869 3.97295 20.6821 3.97029 23.0761C3.97029 23.3422 4.076 23.5974 4.26415 23.7855C4.45231 23.9737 4.7075 24.0794 4.97359 24.0794C5.23968 24.0794 5.49488 23.9737 5.68303 23.7855C5.87119 23.5974 5.97689 23.3422 5.97689 23.0761C5.97689 21.2134 6.71682 19.4271 8.03391 18.11C9.351 16.7929 11.1373 16.053 13 16.053C14.8626 16.053 16.649 16.7929 17.9661 18.11C19.2832 19.4271 20.0231 21.2134 20.0231 23.0761C20.0231 23.3422 20.1288 23.5974 20.317 23.7855C20.5051 23.9737 20.7603 24.0794 21.0264 24.0794C21.2925 24.0794 21.5477 23.9737 21.7358 23.7855C21.924 23.5974 22.0297 23.3422 22.0297 23.0761C22.027 20.6821 21.0748 18.3869 19.382 16.6941C17.6892 15.0012 15.394 14.049 13 14.0464Z" fill="black"/>
</g>
<defs>
<clipPath id="clip0_7101_6802">
<rect width="24.0792" height="24.0792" fill="white" transform="translate(0.960388)"/>
</clipPath>
</defs>
</svg>
