<svg width="42" height="42" viewBox="0 0 42 42" fill="none" xmlns="http://www.w3.org/2000/svg">
    <path d="M21 29.4736C25.6318 29.4736 29.4668 25.6304 29.4668 21.0068C29.4668 16.375 25.6235 12.54 20.9917 12.54C16.3682 12.54 12.5332 16.375 12.5332 21.0068C12.5332 25.6304 16.3765 29.4736 21 29.4736ZM21 28.0625C17.082 28.0625 13.9526 24.9248 13.9526 21.0068C13.9526 17.0889 17.0737 13.9512 20.9917 13.9512C24.9097 13.9512 28.0474 17.0889 28.0557 21.0068C28.064 24.9248 24.918 28.0625 21 28.0625ZM17.8374 21.7041H20.2944V24.1777C20.2944 24.5928 20.5767 24.875 20.9834 24.875C21.3984 24.875 21.689 24.5928 21.689 24.1777V21.7041H24.1626C24.5776 21.7041 24.8599 21.4219 24.8599 21.0151C24.8599 20.6001 24.5776 20.3096 24.1626 20.3096H21.689V17.8525C21.689 17.4209 21.3984 17.1387 20.9834 17.1387C20.5767 17.1387 20.2944 17.4292 20.2944 17.8525V20.3096H17.8374C17.4058 20.3096 17.1235 20.6001 17.1235 21.0151C17.1235 21.4219 17.4141 21.7041 17.8374 21.7041Z"
          fill="#B8BCBF"/>
</svg>
