<svg width="18" height="18" viewBox="0 0 18 18" fill="none" xmlns="http://www.w3.org/2000/svg">
<path d="M9 17.4736C13.6318 17.4736 17.4668 13.6304 17.4668 9.00684C17.4668 4.375 13.6235 0.540039 8.9917 0.540039C4.36816 0.540039 0.533203 4.375 0.533203 9.00684C0.533203 13.6304 4.37646 17.4736 9 17.4736ZM6.06982 12.626C5.69629 12.626 5.38916 12.3105 5.38916 11.9287C5.38916 11.7461 5.46387 11.5801 5.58838 11.4473L8.02051 9.01514L5.58838 6.58301C5.46387 6.4502 5.38916 6.28418 5.38916 6.10156C5.38916 5.71973 5.69629 5.4209 6.06982 5.4209C6.26904 5.4209 6.42676 5.4873 6.55127 5.62012L8.9917 8.05225L11.457 5.61182C11.5981 5.4707 11.7476 5.4043 11.9302 5.4043C12.3037 5.4043 12.6108 5.71143 12.6108 6.08496C12.6108 6.27588 12.5527 6.42529 12.4116 6.57471L9.97119 9.01514L12.4033 11.439C12.5361 11.5801 12.6025 11.7378 12.6025 11.9287C12.6025 12.3105 12.2954 12.626 11.9136 12.626C11.7227 12.626 11.5566 12.543 11.4238 12.4185L8.9917 9.98633L6.57617 12.4185C6.44336 12.5513 6.26904 12.626 6.06982 12.626Z" fill="#B8BCBF"/>
</svg>
