<svg width="21" height="21" viewBox="0 0 21 21" fill="none" xmlns="http://www.w3.org/2000/svg">
<path fill-rule="evenodd" clip-rule="evenodd" d="M13.2447 3.03596C13.1216 2.91289 12.9547 2.84375 12.7807 2.84375C12.6066 2.84375 12.4397 2.91289 12.3166 3.03596L4.27328 11.0793C4.19083 11.1618 4.13183 11.2647 4.10237 11.3774L3.22737 14.7274C3.16849 14.9528 3.23354 15.1925 3.39828 15.3572C3.56301 15.522 3.80275 15.5871 4.02816 15.5282L7.37804 14.6532C7.49085 14.6237 7.59378 14.5647 7.67623 14.4822L15.7196 6.43891C15.9758 6.18263 15.9758 5.76712 15.7196 5.51084L13.2447 3.03596ZM5.32726 11.8815L12.7807 4.42808L14.3275 5.97488L6.87406 13.4283L4.78039 13.9751L5.32726 11.8815Z" fill="white"/>
<path d="M3.5 16.8438C3.13757 16.8438 2.84375 17.1376 2.84375 17.5C2.84375 17.8624 3.13757 18.1562 3.5 18.1562H16.625C16.9874 18.1562 17.2812 17.8624 17.2812 17.5C17.2812 17.1376 16.9874 16.8438 16.625 16.8438H3.5Z" fill="white"/>
</svg>
