<svg width="42" height="42" viewBox="0 0 42 42" fill="none" xmlns="http://www.w3.org/2000/svg">
<path d="M22.0405 28.0708C28.6895 28.0708 33.2881 22.6919 33.2881 21.0151C33.2881 19.3301 28.6812 13.9595 22.0405 13.9595C15.4746 13.9595 10.7847 19.3301 10.7847 21.0151C10.7847 22.6919 15.4746 28.0708 22.0405 28.0708ZM22.0405 25.6387C19.4507 25.6387 17.4004 23.5386 17.3921 21.0151C17.3838 18.4253 19.4507 16.3916 22.0405 16.3916C24.6055 16.3916 26.6807 18.4253 26.6807 21.0151C26.6807 23.5386 24.6055 25.6387 22.0405 25.6387ZM22.0405 22.6836C22.9619 22.6836 23.7256 21.9282 23.7256 21.0151C23.7256 20.0938 22.9619 19.3384 22.0405 19.3384C21.1108 19.3384 20.3472 20.0938 20.3472 21.0151C20.3472 21.9282 21.1108 22.6836 22.0405 22.6836Z" fill="#000A14"/>
</svg>
