<svg width="42" height="42" viewBox="0 0 42 42" fill="none" xmlns="http://www.w3.org/2000/svg">
<path d="M21 28.1289C27.707 28.1289 32.3389 22.7085 32.3389 21.0151C32.3389 19.3135 27.6987 13.9014 21 13.9014C14.3843 13.9014 9.65283 19.3135 9.65283 21.0151C9.65283 22.7085 14.376 28.1289 21 28.1289ZM21 26.8174C15.5298 26.8174 11.1055 22.1855 11.1055 21.0151C11.1055 20.0273 15.5298 15.2129 21 15.2129C26.4453 15.2129 30.8862 20.0273 30.8862 21.0151C30.8862 22.1855 26.4453 26.8174 21 26.8174ZM21 25.6636C23.5815 25.6636 25.6567 23.5469 25.6567 21.0151C25.6567 18.417 23.5815 16.3667 21 16.3667C18.4019 16.3667 16.3184 18.417 16.3267 21.0151C16.3433 23.5469 18.4019 25.6636 21 25.6636ZM21 22.5591C20.1367 22.5591 19.4395 21.8618 19.4395 21.0151C19.4395 20.1602 20.1367 19.4712 21 19.4712C21.855 19.4712 22.5522 20.1602 22.5522 21.0151C22.5522 21.8618 21.855 22.5591 21 22.5591Z" fill="#B8BCBF"/>
</svg>
