<svg width="24" height="24" viewBox="0 0 24 24" fill="none" xmlns="http://www.w3.org/2000/svg">
    <path d="M8.984 20.7733V17.7156C8.984 16.9351 9.65495 16.3023 10.4825 16.3023H13.508C13.9055 16.3023 14.2866 16.4512 14.5677 16.7163C14.8487 16.9813 15.0066 17.3408 15.0066 17.7156V20.7733C15.0041 21.0978 15.1391 21.4099 15.3815 21.6402C15.6239 21.8705 15.9537 22 16.2978 22H18.3619C19.3259 22.0023 20.2514 21.6428 20.9339 21.0008C21.6164 20.3588 22 19.487 22 18.5778V9.86688C22 9.13248 21.6548 8.43578 21.0575 7.96468L14.0358 2.67588C12.8144 1.74858 11.0643 1.77848 9.87937 2.74698L3.01789 7.96468C2.39232 8.42198 2.01853 9.12058 2 9.86688V18.5689C2 20.4639 3.62884 22 5.63811 22H7.65505C8.36968 22 8.95053 21.4562 8.95569 20.7822L8.984 20.7733Z"
          fill="#FC4F00"/>
</svg>
