<svg width="95" height="102" viewBox="0 0 95 102" fill="none" xmlns="http://www.w3.org/2000/svg">
<path d="M68.0499 70.7799C68.0528 71.54 67.8672 72.289 67.5099 72.9599C66.8566 74.5901 65.9375 76.1006 64.7899 77.4299C62.3399 80.4299 58.1099 81.9199 54.3999 82.4899C52.966 82.6963 51.5185 82.7932 50.0699 82.7799C49.7499 82.7799 49.4399 82.7799 49.1299 82.7799L50.5599 70.7799C50.6259 70.5692 50.7598 70.3862 50.9407 70.2596C51.1216 70.133 51.3393 70.0698 51.5599 70.0799H65.0899H66.6899C66.9736 70.063 67.2581 70.0969 67.5299 70.1799C67.6618 70.2251 67.7794 70.3044 67.8707 70.4098C67.9621 70.5152 68.0239 70.6429 68.0499 70.7799Z" fill="#262626"/>
<path d="M64.1401 69.18C64.1364 68.611 64.0929 68.043 64.0101 67.48C63.9137 66.9445 63.749 66.4236 63.5201 65.93C62.4401 63.57 59.7501 62.25 57.3701 63.59C56.5314 64.0591 55.8391 64.7514 55.3701 65.59C54.8041 66.6822 54.5254 67.9004 54.5601 69.13H53.5601C53.5714 68.4244 53.6484 67.7214 53.7901 67.03C54.4101 64.47 56.3801 62.09 59.1801 62.03C61.9801 61.97 64.0001 64.17 64.7501 66.63C64.7501 66.78 64.8401 66.94 64.8801 67.1C65.0349 67.7751 65.0955 68.4683 65.0601 69.16L64.1401 69.18Z" fill="#262626"/>
<path d="M92.16 59.01C90.8754 56.5097 89.0266 54.3425 86.76 52.68C84.3304 50.9757 81.6521 49.6568 78.82 48.77C83.2173 46.4295 86.9894 43.0689 89.82 38.97C92.6118 34.8414 94.0643 29.9531 93.98 24.97C94.0512 21.0028 92.9408 17.1042 90.79 13.77C88.6863 10.5526 85.7764 7.94259 82.35 6.19995C78.7615 4.36757 74.9445 3.02236 71 2.19996C66.7546 1.31253 62.4271 0.876773 58.09 0.899956C51.0495 0.862001 44.0426 1.8731 37.3 3.89996C31.4541 5.57815 25.9214 8.19928 20.92 11.66C16.6362 14.6982 12.7727 18.2893 9.43 22.34C6.43177 25.9364 4.02501 29.987 2.3 34.34C0.848236 37.9551 0.0687871 41.8049 0 45.7C0.0867509 51.4891 1.85523 57.1281 5.09 61.93L24.7 54.11C22.7422 50.756 21.7072 46.9435 21.7 43.06C21.6228 39.2291 22.4415 35.4333 24.0908 31.9748C25.7402 28.5164 28.1746 25.4911 31.2 23.14C37.5467 18 45.64 15.43 55.48 15.43C58.5673 15.3456 61.6423 15.8514 64.54 16.92C66.7485 17.6995 68.6577 19.1507 70 21.07C71.2092 22.9678 71.8318 25.18 71.79 27.43C71.7795 28.9837 71.4846 30.5224 70.92 31.97C70.2307 33.689 69.2905 35.2965 68.13 36.74C66.5021 38.6586 64.4471 40.169 62.13 41.15C59.1293 42.5169 55.9223 43.3752 52.64 43.69C56.1867 33.1833 59.57 25.61 62.79 20.97H41.95C39.6871 23.2493 37.764 25.8426 36.24 28.67C34.4179 31.9029 33.0421 35.3677 32.15 38.97C31.4833 41.6966 30.7367 45.13 29.91 49.27C29.0833 53.41 28.3767 56.7966 27.79 59.43C27.21 62.03 26.41 65.01 25.37 68.36C24.3948 71.5734 23.1711 74.7062 21.71 77.73C20.8 77.65 19.93 77.6099 19.11 77.6099C15.7436 77.6569 12.4006 78.1787 9.18 79.16C5.62 80.2 3.05333 81.5033 1.48 83.07L4.21 99.5799C8.70994 98.1621 13.3925 97.4075 18.11 97.34C24.5634 97.4882 30.9957 98.1335 37.35 99.27C43.295 100.349 49.3111 100.991 55.35 101.19C62.1212 101.321 68.8377 99.955 75.02 97.1899C80.3286 94.8756 84.9041 91.1551 88.2526 86.4302C91.6011 81.7053 93.5954 76.1555 94.02 70.38C94.1 69.55 94.15 68.73 94.15 67.9C94.2202 64.8188 93.5371 61.7671 92.16 59.01ZM68.84 71.15C68.6959 71.9407 68.4817 72.7171 68.2 73.47C67.5546 75.1456 66.6317 76.7007 65.47 78.07C63.8914 79.8463 61.8844 81.1889 59.64 81.9699C56.7264 83.0635 53.6314 83.5929 50.52 83.53H49.24C45.9351 83.3576 42.659 82.8244 39.47 81.9399C40.8706 79.7249 42.056 77.3809 43.01 74.9399C44.13 72.1699 45.01 69.79 45.55 67.8C46.09 65.81 46.96 62.88 48.03 58.99C49.5233 58.91 50.9733 58.87 52.38 58.87C57.6667 58.87 61.7633 59.82 64.67 61.72C66.0069 62.5081 67.1121 63.6351 67.8742 64.9871C68.6362 66.339 69.028 67.8681 69.01 69.42C69.0028 70.0004 68.9459 70.5792 68.84 71.15Z" fill="#FC4F00"/>
</svg>
