<svg width="18" height="19" viewBox="0 0 18 19" fill="none" xmlns="http://www.w3.org/2000/svg">
<path d="M3.91328 0.796875C3.96555 0.810813 4.01781 0.828236 4.07008 0.842174C4.59622 0.964127 5.02828 1.22545 5.3593 1.66448C5.78787 2.23592 6.23039 2.79341 6.67291 3.35091C7.33145 4.18367 7.31055 5.36487 6.62761 6.18022C6.33841 6.52517 6.06663 6.88058 5.78091 7.22553C5.7147 7.30567 5.71819 7.36491 5.75652 7.45202C6.6973 9.58446 8.21997 11.1455 10.3141 12.1629C10.5893 12.2988 10.7775 12.2918 11.0005 12.0793C11.2688 11.8249 11.5719 11.6089 11.8577 11.3754C12.7044 10.6786 13.9169 10.7099 14.7532 11.4172C15.2758 11.8598 15.8194 12.2779 16.3734 12.6786C17.1051 13.2047 17.5163 14.4103 16.9518 15.4486C16.8368 15.6577 16.68 15.8494 16.5232 16.0271C16.234 16.3546 15.9553 16.6995 15.6243 16.9783C14.8124 17.6717 13.8472 17.9818 12.788 18.0166C11.5789 18.0584 10.443 17.7518 9.34194 17.2849C7.86456 16.6577 6.55095 15.7762 5.34188 14.7344C3.80178 13.4103 2.48817 11.8911 1.46376 10.135C0.805217 9.00255 0.293016 7.81093 0.083953 6.50777C-0.142531 5.11402 0.0142642 3.78645 0.867936 2.60873C1.05261 2.35437 1.28955 2.13137 1.51952 1.90837C1.71116 1.72021 1.9237 1.553 2.1258 1.37529C2.45333 1.08261 2.82616 0.89791 3.2617 0.828222C3.28609 0.824738 3.31048 0.807328 3.33836 0.796875C3.53348 0.796875 3.72513 0.796875 3.91328 0.796875ZM12.565 16.5706C12.6835 16.5706 12.8019 16.5776 12.9169 16.5706C13.6451 16.5184 14.3037 16.2884 14.8333 15.7727C15.1155 15.5009 15.3664 15.1943 15.6138 14.8877C15.8891 14.5497 15.8194 14.0619 15.4744 13.7971C14.9065 13.3545 14.3385 12.9155 13.7706 12.4765C13.4709 12.2431 13.0737 12.2465 12.774 12.4904C12.2862 12.8807 11.8019 13.2674 11.3176 13.6612C11.0563 13.8737 10.7845 13.9156 10.4709 13.7901C7.50567 12.6054 5.4255 10.5322 4.23733 7.56699C4.10492 7.23946 4.15022 6.96071 4.37322 6.69241C4.76347 6.21854 5.13978 5.7377 5.52306 5.26383C5.77045 4.95372 5.78091 4.55997 5.54397 4.25335C5.10842 3.68888 4.66939 3.1279 4.23384 2.56343C3.93767 2.18015 3.44986 2.13139 3.08052 2.45195C2.87494 2.62966 2.67981 2.81434 2.47075 2.98159C2.18155 3.21155 1.97945 3.50421 1.81569 3.82478C1.55784 4.32304 1.44286 4.85617 1.43241 5.41367C1.41498 6.25341 1.61011 7.04782 1.91325 7.82483C2.44984 9.18722 3.24776 10.3893 4.19203 11.4974C5.68683 13.25 7.41508 14.717 9.48828 15.7449C10.4604 16.2152 11.4709 16.5567 12.565 16.5706Z" fill="white"/>
<path d="M10.4848 0.796875C10.8437 0.852625 11.2096 0.880497 11.5615 0.967606C14.5197 1.71326 16.3595 3.58089 17.0703 6.54261C17.1783 6.99557 17.1922 7.47643 17.2201 7.94682C17.2445 8.36843 16.9344 8.68896 16.5267 8.7029C16.133 8.72032 15.8229 8.41024 15.7811 7.98863C15.7358 7.52172 15.7114 7.04436 15.6034 6.59139C15.0598 4.28474 13.0458 2.52861 10.6869 2.27773C10.4918 2.25683 10.2967 2.24987 10.098 2.2429C9.66947 2.22548 9.39072 2.00596 9.328 1.63313C9.26528 1.27076 9.45343 0.981532 9.85414 0.824735C9.86459 0.82125 9.87156 0.810819 9.87853 0.803851C10.0806 0.796882 10.2827 0.796875 10.4848 0.796875Z" fill="white"/>
<path d="M14.363 7.7829C14.3456 7.92576 14.3491 8.07562 14.3073 8.21151C14.2132 8.53556 13.8752 8.7411 13.5512 8.6958C13.1853 8.64354 12.924 8.36828 12.917 8.00242C12.91 7.58778 12.8438 7.18362 12.6627 6.81079C12.133 5.72018 11.2619 5.15222 10.0494 5.10692C9.63125 5.09299 9.31417 4.77941 9.31766 4.38219C9.32114 3.978 9.65216 3.66439 10.0772 3.66788C10.234 3.67136 10.3908 3.67832 10.5476 3.69922C12.5337 3.94313 14.0738 5.4867 14.3212 7.47627C14.3352 7.57732 14.3352 7.67841 14.3456 7.77945C14.3491 7.78294 14.3561 7.7829 14.363 7.7829Z" fill="white"/>
</svg>
