<svg width="720" height="104" viewBox="0 0 720 104" fill="none" xmlns="http://www.w3.org/2000/svg">
<path d="M702.02 0.799805H17.7C7.92456 0.799805 0 8.72436 0 18.4998V85.4798C0 95.2552 7.92456 103.18 17.7 103.18H702.02C711.795 103.18 719.72 95.2552 719.72 85.4798V18.4998C719.72 8.72436 711.795 0.799805 702.02 0.799805Z" fill="#262626"/>
<path d="M656.88 102.92V0.0396729H702.31C707.004 0.0396729 711.506 1.90448 714.826 5.22388C718.145 8.54327 720.01 13.0454 720.01 17.7397V85.2297C720.01 89.924 718.145 94.4261 714.826 97.7455C711.506 101.065 707.004 102.93 702.31 102.93H656.88V102.92Z" fill="#515151"/>
<path d="M667.19 103.32V0.389832H702.07C706.764 0.389832 711.266 2.25464 714.586 5.57404C717.905 8.89343 719.77 13.3955 719.77 18.0898V85.5798C719.77 90.2742 717.905 94.7762 714.586 98.0956C711.266 101.415 706.764 103.28 702.07 103.28H667.19V103.32Z" fill="#595959"/>
<path d="M681.21 102.87V0.00012207H702.21C706.904 0.00012207 711.406 1.86493 714.726 5.18433C718.045 8.50372 719.91 13.0058 719.91 17.7001V85.1701C719.91 89.8644 718.045 94.3665 714.726 97.6859C711.406 101.005 706.904 102.87 702.21 102.87H681.21Z" fill="#7A7A7A"/>
</svg>
