<svg width="42" height="42" viewBox="0 0 42 42" fill="none" xmlns="http://www.w3.org/2000/svg">
<path fill-rule="evenodd" clip-rule="evenodd" d="M26.4255 16.4004C26.4255 13.4178 24.2214 11 21.5024 11C18.7835 11 16.5793 13.4178 16.5793 16.4004C16.5793 19.3829 18.7835 21.8007 21.5024 21.8007C24.2214 21.8007 26.4255 19.3829 26.4255 16.4004ZM23.5382 24.5498C22.1885 24.4338 20.8326 24.4338 19.4829 24.5498C18.7451 24.5934 18.0108 24.6915 17.285 24.8434C15.7034 25.1548 14.6815 25.7331 14.2516 26.6228C14.0831 26.9705 13.9967 27.3589 14.0001 27.7527C14.0015 28.144 14.0907 28.529 14.2597 28.8737C14.6977 29.7633 15.7196 30.3327 17.285 30.653C18.0076 30.8082 18.7394 30.9063 19.4748 30.9466C19.7181 30.9466 19.9695 30.9644 20.2291 31H21.47C22.1594 31 22.8406 31 23.5219 30.9199C24.2573 30.874 24.989 30.7729 25.7118 30.6174C27.3339 30.3149 28.3152 29.7278 28.7532 28.8381C29.0821 28.1437 29.0821 27.3171 28.7532 26.6228C28.3152 25.7331 27.2933 25.1815 25.728 24.8434C25.0046 24.6936 24.2731 24.5955 23.5382 24.5498Z" fill="#B8BCBF"/>
</svg>
