<svg width="1006" height="944" viewBox="0 0 1006 944" fill="none" xmlns="http://www.w3.org/2000/svg">
<path d="M641.74 690.334C641.51 696.734 634.42 704.254 631.34 708.604C622.92 720.434 610.97 731.874 595.83 742.574C566.17 763.554 524.28 766.394 489.27 762.224C475.82 760.624 462.47 757.584 449.45 753.964C446.59 753.164 443.77 752.344 441 751.484L483.99 646.634C484.79 645.564 488.61 640.894 494.61 642.714C499.14 643.974 503.67 645.234 508.2 646.484C519.11 649.514 530.02 652.544 540.93 655.574C554.2 659.254 567.46 662.944 580.73 666.624C592.72 669.954 604.76 673.184 616.72 676.584C621.53 677.954 626.35 679.324 631.16 680.694C633.71 681.414 636.32 682.174 638.43 683.764C640.92 685.634 641.83 687.904 641.74 690.334Z" fill="#FF8666"/>
<path d="M610.38 665.994C611.03 666.174 613.35 651.624 613.47 650.304C613.9 645.244 613.79 640.094 612.98 635.074C609.14 611.084 588.1 592.414 563.3 598.554C554.52 600.724 546.5 605.594 540.23 612.084C532.18 620.424 527.05 630.904 524.04 642.014C521.16 641.224 518.27 640.434 515.39 639.644C514.39 639.374 521.89 622.664 522.69 621.234C534.7 599.654 558.51 583.064 583.99 589.344C608.76 595.444 622.22 620.744 622.82 644.824C622.86 646.344 622.85 647.874 622.78 649.394C622.51 655.884 621.35 662.334 619.28 668.494C616.32 667.664 613.35 666.834 610.38 665.994Z" fill="#FF8666"/>
<path d="M896.15 636.265C890.35 609.275 879.37 585.705 863.24 565.515C847.11 545.325 826.44 526.915 801.29 510.275C848.62 499.255 889.9 478.925 925.13 449.235C960.34 419.575 984.6 380.805 997.88 332.965C1008.47 294.835 1008.27 258.555 997.29 224.095C986.33 189.645 967.23 159.795 940.03 134.525C912.81 109.255 882 87.595 847.54 69.595C813.09 51.565 775.3 36.855 734.19 25.445C667.64 6.96503 602.56 -1.45496 538.9 0.205041C475.2 1.84504 419.39 11.515 371.41 29.185C323.42 46.875 279.87 69.595 240.74 97.385C201.64 125.165 170.13 155.275 146.23 187.695C122.34 220.115 105.91 252.405 96.99 284.535C83.08 334.615 84.81 387.845 102.18 444.185L298.97 422.745C289.74 386.365 290.02 350.605 299.77 315.475C320.11 242.215 365.36 190.165 435.52 159.305C505.69 128.465 585.23 125.395 674.22 150.105C706.36 159.025 732.41 171.085 752.34 186.285C772.29 201.475 785.24 218.565 791.26 237.535C797.25 256.535 797.14 277.225 790.91 299.645C787.17 313.115 780.76 326.025 771.71 338.405C762.62 350.785 750.22 362.835 734.48 374.565C718.74 386.315 697.11 394.605 669.61 399.425C642.08 404.285 611.37 403.995 577.44 398.595C635.94 312.585 685.59 252.695 726.38 218.915L537.99 166.605C515.27 178.825 491.63 197.225 467.11 221.805C442.55 246.395 421.6 274.005 404.25 304.595C391.41 327.605 376.07 356.765 358.23 392.065C340.36 427.395 325.55 456.065 313.8 478.185C302.01 500.275 287.26 525.155 269.52 552.835C251.74 580.525 232.89 605.685 212.93 628.325C204.89 625.295 197.15 622.725 189.68 620.655C162.01 612.975 130.81 609.345 96.08 609.755C61.32 610.195 34.88 615.535 16.74 625.785L0 781.775C48.59 780.775 92.32 785.655 131.21 796.445C175.31 808.685 231.64 830.565 300.19 862.095C368.73 893.605 421.33 914.445 457.96 924.615C525.25 943.295 587.8 947.785 645.65 938.095C703.51 928.385 752.78 906.855 793.44 873.455C834.12 840.065 864.65 796.805 885.03 743.685C887.84 736.425 890.31 729.045 892.39 721.565C900.69 691.685 901.94 663.235 896.15 636.265ZM655.07 687.385C652.02 693.725 648.13 700.185 643.45 706.795C634.83 718.915 622.78 730.475 607.25 741.455C591.72 752.445 570.89 759.345 544.74 762.135C518.6 764.945 489.84 761.985 458.44 753.265C454.63 752.205 450.79 751.065 446.92 749.805C420.35 741.275 392.29 728.345 362.67 710.985C378.66 696.915 395.19 678.745 412.24 656.495C429.28 634.255 442.9 614.885 453.13 598.395C463.32 581.915 478.17 557.455 497.65 525.005C511.31 528.005 524.48 531.255 537.21 534.795C585.04 548.075 619.65 566.945 641.07 591.405C662.44 615.875 669.09 642.685 661 671.825C659.6 676.895 657.61 682.105 655.07 687.385Z" fill="#FF8666"/>
</svg>
