<svg width="42" height="42" viewBox="0 0 42 42" fill="none" xmlns="http://www.w3.org/2000/svg">
<path d="M21 29.4736C25.6318 29.4736 29.4668 25.6304 29.4668 21.0068C29.4668 16.375 25.6235 12.54 20.9917 12.54C16.3682 12.54 12.5332 16.375 12.5332 21.0068C12.5332 25.6304 16.3765 29.4736 21 29.4736ZM21 28.0625C17.082 28.0625 13.9526 24.9248 13.9526 21.0068C13.9526 17.0889 17.0737 13.9512 20.9917 13.9512C24.9097 13.9512 28.0474 17.0889 28.0557 21.0068C28.064 24.9248 24.918 28.0625 21 28.0625ZM17.7378 21.7124H24.2539C24.7188 21.7124 25.0342 21.4717 25.0342 21.0317C25.0342 20.5835 24.7354 20.3262 24.2539 20.3262H17.7378C17.2563 20.3262 16.9492 20.5835 16.9492 21.0317C16.9492 21.4717 17.2729 21.7124 17.7378 21.7124Z" fill="#B8BCBF"/>
</svg>
