<svg width="24" height="24" viewBox="0 0 24 24" fill="none" xmlns="http://www.w3.org/2000/svg">
<path d="M20.8934 21.6228H20.6651C20.4134 21.5303 20.189 21.3761 20.0124 21.1743C18.5147 19.6739 17.0116 18.1722 15.5033 16.6692C15.4578 16.6157 15.4176 16.5581 15.3832 16.497L15.1869 16.6331C14.28 17.3515 13.2291 17.8664 12.1056 18.1428C10.9821 18.4192 9.81225 18.4506 8.67557 18.2349C7.10883 17.9513 5.65948 17.215 4.50657 16.1169C3.35366 15.0188 2.54768 13.607 2.1882 12.0559C2.11212 11.7236 2.06407 11.3832 2 11.0468V9.3649L2.10813 8.7442C2.31723 7.57231 2.77953 6.46017 3.46279 5.4854C4.14604 4.51063 5.03377 3.6967 6.06405 3.10041C7.09434 2.50413 8.24232 2.13986 9.4279 2.03302C10.6135 1.92618 11.8081 2.07935 12.9283 2.48183C14.0486 2.88432 15.0676 3.52642 15.9141 4.36334C16.7606 5.20025 17.4143 6.21181 17.8296 7.32743C18.2448 8.44306 18.4116 9.63585 18.3183 10.8225C18.225 12.0093 17.8738 13.1614 17.2893 14.1984C17.0611 14.5988 16.7847 14.9752 16.4884 15.3997C16.5438 15.4308 16.596 15.467 16.6446 15.5079L21.1457 19.9969C21.353 20.1744 21.5115 20.4018 21.6062 20.6577V20.8859C21.5733 21.0653 21.488 21.231 21.3612 21.3621C21.2344 21.4932 21.0716 21.5839 20.8934 21.6228ZM3.63784 10.1898C3.63388 11.4837 4.01386 12.7496 4.72965 13.8275C5.44544 14.9054 6.46491 15.7467 7.65898 16.2449C8.85309 16.7432 10.1681 16.876 11.4378 16.6266C12.7074 16.3772 13.8745 15.7567 14.7914 14.8438C15.7082 13.9309 16.3336 12.7664 16.5885 11.4979C16.8434 10.2294 16.7162 8.91375 16.2231 7.71751C15.7299 6.52128 14.893 5.49824 13.8182 4.77783C12.7435 4.05742 11.4791 3.67204 10.1853 3.67045C9.32606 3.66623 8.47446 3.83168 7.67936 4.15732C6.88422 4.48297 6.16124 4.96238 5.55182 5.56808C4.94241 6.17377 4.45855 6.89382 4.12805 7.68696C3.79754 8.48006 3.62688 9.33062 3.62584 10.1898H3.63784Z" fill="#FC4F00"/>
</svg>
