<svg width="20" height="18" viewBox="0 0 20 18" fill="none" xmlns="http://www.w3.org/2000/svg">
<path d="M16.3702 11.8017C16.2865 12.3939 16.2007 12.986 16.121 13.5802C15.9316 15.0038 14.9945 16.0127 13.5968 16.2439C13.4453 16.2699 13.2898 16.2699 13.1362 16.2699C10.7417 16.2719 8.34708 16.2719 5.9525 16.2699C4.39133 16.2699 3.17909 15.1772 2.97771 13.628C2.79428 12.2244 2.57895 10.8247 2.37956 9.42307C2.33171 9.08412 2.27987 8.74515 2.23401 8.4062C2.16024 7.84793 2.47327 7.49105 3.03952 7.49105C5.21079 7.49105 7.38207 7.49105 9.55533 7.49105C9.81653 7.49105 10.0777 7.49105 10.3389 7.49105C10.2532 7.12817 10.1993 6.75333 10.1834 6.37052C10.1774 6.25488 10.1794 6.13924 10.1834 6.02359H4.48704C4.69639 4.00784 6.52871 1.78073 9.28218 1.65113C10.319 1.60128 11.2541 1.8525 12.0416 2.29912C12.4524 1.94223 12.9129 1.64117 13.4054 1.40988C12.6079 0.83965 11.6528 0.45285 10.5363 0.265431C6.99526 -0.326735 3.6596 2.11171 3.04949 5.64676C3.02955 5.76439 3.0455 5.91791 2.97572 5.98969C2.90992 6.05549 2.7564 6.03357 2.64075 6.05151C1.68571 6.20105 0.96993 6.8969 0.788492 7.84994C0.780517 7.88783 0.766561 7.9257 0.756592 7.96358V8.51188C0.814413 8.87077 0.876221 9.22966 0.928061 9.58855C1.14738 11.1078 1.34676 12.6291 1.58802 14.1444C1.86914 15.903 3.39841 17.3944 5.15696 17.6715C5.28058 17.6915 5.4022 17.7154 5.52382 17.7373H13.5849C13.8022 17.6934 14.0215 17.6595 14.2348 17.6057C16.0293 17.1571 17.3253 15.6717 17.5645 13.8434C17.6742 13.008 17.7938 12.1745 17.9134 11.3391C17.423 11.5684 16.9026 11.7259 16.3702 11.8017Z" fill="#262626"/>
<path d="M5.14505 11.8854C5.14505 11.1496 5.14106 10.4119 5.14704 9.67619C5.14904 9.33125 5.38232 9.05613 5.71927 8.97638C6.03031 8.9026 6.37125 9.04814 6.51281 9.33924C6.57063 9.45887 6.60652 9.60043 6.60652 9.73202C6.6125 11.1656 6.61251 12.5972 6.60852 14.0307C6.60652 14.4833 6.28951 14.8123 5.8728 14.8103C5.45409 14.8083 5.14505 14.4773 5.14505 14.0247C5.14306 13.3129 5.14306 12.5991 5.14505 11.8854Z" fill="#262626"/>
<path d="M12.4602 10.7888C12.4602 11.8635 12.4582 12.9401 12.4622 14.0148C12.4622 14.1205 12.4782 14.2322 12.514 14.3338C12.6277 14.6608 12.9647 14.8562 13.2996 14.8004C13.6685 14.7406 13.9217 14.4535 13.9257 14.0766C13.9297 13.3469 13.9277 12.6152 13.9277 11.8854C13.9277 11.7797 13.9277 11.6721 13.9277 11.5664C13.3913 11.385 12.8989 11.1198 12.4602 10.7888Z" fill="#262626"/>
<path d="M10.2612 11.8834C10.2612 12.6271 10.2672 13.3688 10.2592 14.1124C10.2553 14.4674 10.006 14.7365 9.65512 14.7983C9.32415 14.8562 8.98719 14.6787 8.86357 14.3657C8.82569 14.272 8.80775 14.1663 8.80775 14.0666C8.80376 12.6151 8.80376 11.1636 8.80575 9.71209C8.80775 9.27943 9.12078 8.96241 9.53151 8.96241C9.94223 8.96042 10.2573 9.27743 10.2612 9.7081C10.2672 10.4299 10.2632 11.1556 10.2612 11.8834Z" fill="#262626"/>
<path d="M15.3492 10.9643C15.1857 10.9423 15.0203 10.9244 14.8588 10.8965C13.9356 10.735 13.1421 10.3182 12.4841 9.6543C11.8541 9.02027 11.4613 8.25865 11.2918 7.38137C11.2699 7.2737 11.2499 7.15805 11.2619 7.05038C11.2938 6.76925 11.5231 6.57186 11.7982 6.57186C12.0734 6.56987 12.3047 6.76526 12.3465 7.0424C12.4383 7.64055 12.6636 8.18088 13.0504 8.64744C13.7621 9.4988 14.6813 9.91351 15.7899 9.86167C17.357 9.7879 18.661 8.57965 18.8703 7.03245C19.1056 5.27788 17.9731 3.68082 16.2265 3.33988C15.2137 3.14249 14.3005 3.39569 13.497 4.04368C13.491 4.04966 13.485 4.05565 13.4711 4.07359C13.5787 4.17927 13.6864 4.28296 13.7921 4.38863C13.8299 4.42652 13.8698 4.46439 13.9057 4.50626C14.0871 4.72758 13.9635 5.05256 13.6824 5.09842C13.6465 5.1044 13.6086 5.10641 13.5707 5.10641C13.0484 5.10641 12.524 5.10641 12.0016 5.10641C11.7285 5.10641 11.5809 4.96086 11.5809 4.6897C11.5809 4.15735 11.5789 3.625 11.5809 3.09464C11.5809 2.8175 11.8042 2.63606 12.0495 2.71382C12.1172 2.73575 12.181 2.7836 12.2329 2.83344C12.3884 2.98098 12.5359 3.13651 12.6875 3.28804C12.8251 3.18237 12.9527 3.07669 13.0882 2.98298C13.8937 2.41873 14.793 2.15155 15.7739 2.18146C17.7897 2.24526 19.5303 3.74462 19.9191 5.72449C20.3796 8.06922 18.8265 10.4299 16.382 10.8905C16.2066 10.9244 16.0271 10.9403 15.8477 10.9643C15.6802 10.9643 15.5147 10.9643 15.3492 10.9643Z" fill="#262626"/>
<path d="M14.2547 6.63362C14.2547 6.37243 14.2507 6.11323 14.2567 5.85203C14.2607 5.61676 14.3704 5.43931 14.5877 5.3456C14.795 5.25587 14.9924 5.28779 15.1639 5.43533C15.2995 5.54898 15.3533 5.7005 15.3533 5.87596C15.3513 6.30463 15.3553 6.73329 15.3513 7.16197C15.3513 7.23773 15.3752 7.28958 15.4271 7.34141C15.5866 7.49693 15.7461 7.65245 15.8996 7.81395C16.1987 8.12897 16.0492 8.6354 15.6285 8.7311C15.441 8.77297 15.2676 8.72713 15.13 8.59155C14.9027 8.37023 14.6794 8.14493 14.4561 7.91763C14.3125 7.77208 14.2547 7.58865 14.2547 7.38727C14.2547 7.13804 14.2547 6.88684 14.2547 6.63362Z" fill="#262626"/>
</svg>
